# xmcd CD database file
#
# Track frame offsets:
#	150
#	22373
#	40870
#
# Disc length: 856 seconds
#
# Revision: 0
# Processed by: cddbd v1.5.1PL0 Copyright (c) Steve Scherf et al.
# Submitted via: CDex 1.51
#
DISCID=22035603
DTITLE=川嶋　あい - ５２５ページ〜プロローグから〜　（先行盤）
DYEAR=2004
DGENRE=Pop
TTITLE0=５２５ページ (04.05.26 Ver.)
TTITLE1=５２５ページ (03.12.10 Ver.)
TTITLE2=５２５ページ (03.06.30 Ver.)
EXTD=YEAR: 2004
EXTT0=
EXTT1=
EXTT2=
PLAYORDER=
